<?xml version="1.0" standalone="no"?>
<!DOCTYPE svg PUBLIC "-//W3C//DTD SVG 20010904//EN"
 "http://www.w3.org/TR/2001/REC-SVG-20010904/DTD/svg10.dtd">
<svg version="1.0" xmlns="http://www.w3.org/2000/svg"
 width="512.000000pt" height="512.000000pt" viewBox="0 0 512.000000 512.000000"
 preserveAspectRatio="xMidYMid meet">
<metadata>
Created by potrace 1.14, written by Peter Selinger 2001-2017
</metadata>
<g transform="translate(0.000000,512.000000) scale(0.100000,-0.100000)"
fill="#000000" stroke="none">
<path d="M1650 5113 c-42 -14 -91 -59 -111 -101 -52 -111 8 -357 140 -577 93
-156 234 -319 348 -402 35 -26 63 -50 63 -54 0 -4 -20 -17 -45 -29 -68 -33
-228 -142 -335 -228 -104 -85 -332 -307 -426 -417 -151 -176 -318 -409 -414
-575 -24 -41 -50 -83 -58 -92 -8 -10 -12 -18 -9 -18 4 0 -7 -23 -24 -51 -109
-185 -267 -597 -293 -764 -4 -22 -11 -56 -16 -75 -5 -19 -12 -60 -15 -90 -3
-30 -8 -67 -11 -83 -7 -43 -7 -234 0 -312 40 -435 284 -777 701 -981 55 -27
114 -54 130 -61 95 -38 298 -98 395 -117 14 -2 50 -10 80 -16 70 -14 167 -27
250 -35 36 -3 79 -8 95 -10 200 -26 881 -26 1045 -1 14 2 50 7 80 11 333 39
597 118 867 259 100 53 249 176 338 282 115 135 204 321 231 484 3 14 7 31 9
37 6 16 18 175 18 233 0 53 -12 222 -19 253 -2 12 -7 40 -10 62 -15 103 -113
435 -135 460 -5 5 -9 15 -9 22 0 34 -157 349 -253 508 -104 171 -287 430 -360
507 -7 7 -34 40 -61 73 -85 103 -356 367 -471 458 -147 117 -286 209 -421 277
l-110 57 87 91 c250 261 487 778 438 956 -12 44 -40 54 -140 51 -105 -4 -240
-32 -459 -95 -217 -63 -342 -89 -408 -85 -71 5 -73 5 -142 24 -40 11 -182 69
-265 107 -102 47 -244 74 -295 57z m957 -2049 c42 -27 57 -63 60 -138 1 -39 2
-78 2 -86 1 -11 24 -21 79 -34 121 -28 216 -78 295 -157 100 -100 155 -235
122 -299 -30 -57 -72 -78 -147 -71 -32 2 -76 51 -95 103 -21 62 -75 119 -135
146 -39 18 -98 35 -114 33 -9 -1 -11 -449 -3 -462 3 -5 38 -19 79 -30 181 -51
298 -119 366 -211 150 -205 88 -499 -136 -641 -64 -40 -182 -82 -257 -92 -45
-6 -53 -10 -54 -28 0 -12 -1 -52 -3 -89 -2 -81 -24 -116 -83 -137 -61 -22
-115 -3 -146 49 -20 33 -23 51 -22 124 1 70 -2 87 -14 90 -9 3 -36 10 -61 16
-42 11 -149 57 -160 70 -3 3 -23 17 -45 32 -99 67 -193 211 -211 323 -12 76
52 146 130 143 54 -2 95 -43 131 -130 18 -46 41 -80 72 -108 41 -39 139 -93
152 -85 4 2 6 113 6 246 l0 244 -90 31 c-201 69 -285 129 -353 254 -30 55 -45
193 -29 270 15 73 70 171 124 221 40 38 131 99 146 99 7 0 17 4 23 9 5 5 42
19 82 30 75 20 77 21 90 21 4 0 7 40 8 88 0 76 4 93 24 121 40 57 111 71 167
35z"/>
<path d="M2344 2544 c-50 -18 -119 -75 -140 -116 -34 -67 -16 -159 40 -201 34
-26 158 -79 166 -71 2 3 5 95 5 205 0 222 5 210 -71 183z"/>
<path d="M2669 1802 c-3 -78 -1 -424 3 -427 13 -13 142 32 184 64 60 45 85 88
88 148 6 115 -57 179 -221 227 l-53 15 -1 -27z"/>
</g>
</svg>
